<svg xmlns="http://www.w3.org/2000/svg" width="271.023" height="300" id="adobe">
  <path fill-rule="evenodd" d="M231.427 6.857h16.458l-.517 2.914h-3.085a8.938 8.938 0 0 1-2.57-.341v5.311c0 1.884-.515 3.772-.515 5.656s-.515 3.772-.515 4.8h-4.113v-4.8c0-1.884.515-3.772.515-5.656 0-2.058.511-4.456.511-5.314h-4.115a7.5 7.5 0 0 0-2.055.341V6.857Zm18.511 0h5.656a22.191 22.191 0 0 0 .515 2.57c0 .858 1.028 2.4 1.543 4.285 0 .515.515 1.886.515 2.914a20.072 20.072 0 0 0 1.543 3.772c0-1.028 1.028-2.4 1.543-4.285.511-1.371 1.543-3.429 2.055-4.8.515-1.545 1.543-3.429 1.543-4.456h6.173v5.827c0 2.058-.515 4.8-.515 6.685v5.829h-4.113v-8.573c0-1.543.515-2.914.515-3.943V10.8l-5.656 14.4h-4.12c0-1.03-1.028-2.914-1.028-4.287-.515-2.4-1.543-4.287-1.543-4.8 0-1.028-1.028-2.914-1.543-4.8v4.8c0 1.371-.515 3.257-.515 4.8v4.288h-4.113c0-1.886.515-4.287.515-6.342 0-1.714.511-4.115.511-6.173 0-1.886.517-3.772.517-5.829ZM52.114 298.794H41.142l-4.285-15.426h-20.23l-4.285 15.426H1.714l18.685-68.227h12Zm-18.344-26.57-7.2-25.712-6.688 25.712Zm57.772 26.57h-9.258v-7.026a12.666 12.666 0 0 1-5.486 6c-1.884 1.028-3.943 2.231-6 2.231-3.772 0-7.541-2.575-10.286-6.859-3.085-3.941-4.456-10.8-4.456-18.855 0-8.226 1.373-15.431 3.943-19.715 2.742-4.113 6.685-6.683 11.315-6.683 3.6 0 7.372 2.57 10.627 7.2v-24.518h9.6v68.225Zm-26.057-25.709c0 5.141.687 9.768 1.543 11.828 1.545 3.085 3.772 5.141 6.344 5.141 2.4 0 4.285-1.543 5.827-3.426 1.543-2.575 2.742-6.859 2.742-12 0-5.488-.856-10.114-2.4-12.689-1.373-2.57-3.772-4.285-6.17-4.285-2.058 0-3.943 1.714-5.658 3.774-1.545 2.57-2.229 6.512-2.229 11.656Zm33.942 0a33.608 33.608 0 0 1 2.058-12.171 21.64 21.64 0 0 1 6.685-9.258 17.057 17.057 0 0 1 9.944-3.77 16.462 16.462 0 0 1 13.542 7.2c3.6 5.141 5.486 12 5.486 19.2s-1.886 13.714-5.486 18.344c-3.772 4.8-8.228 7.372-13.542 7.372a18.708 18.708 0 0 1-9.6-3.085 20.5 20.5 0 0 1-7.029-8.915c-1.543-3.946-2.058-9.086-2.058-14.231v-.684Zm9.6 1.2c0 5.145.515 9.086 2.058 11.657a8.5 8.5 0 0 0 6.688 4.113 7.961 7.961 0 0 0 6.342-4.113c1.714-2.57 2.742-6.512 2.742-11.657s-1.028-9.43-2.742-12c-1.543-2.914-4.115-4.63-6.342-4.63-2.4 0-4.8 1.714-6.173 4.285a27.015 27.015 0 0 0-2.574 12.344Zm35.658 24.51v-68.228h9.6v24.517c2.746-4.63 6.688-7.2 10.457-7.2 4.456 0 8.23 2.57 11.144 6.683 2.914 4.285 4.63 10.8 4.63 19.2 0 8.23-1.714 15.431-4.63 19.372-3.085 4.285-6.855 6.859-10.629 6.859-2.055 0-4.285-1.2-6.173-2.231-2.055-.856-3.941-3.426-4.973-6v7.026h-9.423Zm9.6-25.709c0 5.141.86 9.768 1.714 11.828 1.543 3.085 4.117 5.141 6.859 5.141 2.4 0 4.285-1.543 5.656-3.426 1.543-2.06 2.4-6.859 2.4-12 0-5.488-.856-10.114-2.4-12.689-1.371-2.57-3.774-4.285-6.173-4.285-2.227 0-4.113 1.714-5.656 3.774-1.54 2.57-2.4 6.512-2.4 11.656Zm55.371 10.286 9.6 1.543c-1.032 5.141-3.431 9.43-5.827 11.313a18 18 0 0 1-10.457 3.774 15.806 15.806 0 0 1-13.888-8.23c-2.4-4.285-3.431-10.286-3.431-17.14 0-8.059 1.371-14.913 4.456-19.543s7.544-7.2 12.343-7.2c5.312 0 9.6 2.57 12.517 7.2 3.255 5.141 5.141 12.856 5.141 22.629h-24.854c0 4.285.515 7.2 2.231 9.425a6.6 6.6 0 0 0 5.484 2.914c1.714 0 3.257-.339 3.941-1.543a23.123 23.123 0 0 0 2.74-5.141Zm.86-13.716a18.955 18.955 0 0 0-2.4-8.743 6.737 6.737 0 0 0-5.312-3.257c-2.231 0-4.285 1.714-5.312 3.774-1.714 2.055-2.231 5.141-2.231 8.226h15.259Z"></path>
  <path fill="#cc2229" fill-rule="evenodd" d="M0 0h82.284L0 200.4Zm138.34 0h83.312v197.824Zm-27.085 76.627L156.684 196.8H128.57l-19.37-38.056H78.341Z"></path>
</svg>
